<svg xmlns="http://www.w3.org/2000/svg" width="900" height="460" font-family="sans-serif" font-size="12">
<rect width="900" height="460" fill="white"/>
<text x="60" y="24" font-size="16" font-weight="bold">Success probability by family</text>
<line x1="60" y1="370" x2="880" y2="370" stroke="#333"/><line x1="60" y1="50" x2="60" y2="370" stroke="#333"/>
<line x1="60" y1="370.0" x2="880" y2="370.0" stroke="#eee"/><text x="54.0" y="374.0" text-anchor="end">0.000</text>
<line x1="60" y1="306.0" x2="880" y2="306.0" stroke="#eee"/><text x="54.0" y="310.0" text-anchor="end">0.200</text>
<line x1="60" y1="242.0" x2="880" y2="242.0" stroke="#eee"/><text x="54.0" y="246.0" text-anchor="end">0.400</text>
<line x1="60" y1="178.0" x2="880" y2="178.0" stroke="#eee"/><text x="54.0" y="182.0" text-anchor="end">0.600</text>
<line x1="60" y1="114.0" x2="880" y2="114.0" stroke="#eee"/><text x="54.0" y="118.0" text-anchor="end">0.800</text>
<line x1="60" y1="50.0" x2="880" y2="50.0" stroke="#eee"/><text x="54.0" y="54.0" text-anchor="end">1.000</text>
<rect x="76.4" y="70.0" width="40.2" height="300.0" fill="#4e79a7"/>
<rect x="120.1" y="90.0" width="40.2" height="280.0" fill="#f28e2b"/>
<rect x="163.9" y="50.0" width="40.2" height="320.0" fill="#59a14f"/>
<text x="142.0" y="388.0" text-anchor="middle">chimera</text>
<rect x="240.4" y="360.0" width="40.2" height="10.0" fill="#4e79a7"/>
<rect x="284.1" y="170.0" width="40.2" height="200.0" fill="#f28e2b"/>
<rect x="327.9" y="50.0" width="40.2" height="320.0" fill="#59a14f"/>
<text x="306.0" y="388.0" text-anchor="middle">dense</text>
<rect x="404.4" y="370.0" width="40.2" height="0.0" fill="#4e79a7"/>
<rect x="448.1" y="260.0" width="40.2" height="110.0" fill="#f28e2b"/>
<rect x="491.9" y="50.0" width="40.2" height="320.0" fill="#59a14f"/>
<text x="470.0" y="388.0" text-anchor="middle">random</text>
<rect x="568.4" y="370.0" width="40.2" height="0.0" fill="#4e79a7"/>
<rect x="612.1" y="200.0" width="40.2" height="170.0" fill="#f28e2b"/>
<rect x="655.9" y="50.0" width="40.2" height="320.0" fill="#59a14f"/>
<text x="634.0" y="388.0" text-anchor="middle">sk</text>
<rect x="732.4" y="370.0" width="40.2" height="0.0" fill="#4e79a7"/>
<rect x="776.1" y="260.0" width="40.2" height="110.0" fill="#f28e2b"/>
<rect x="819.9" y="50.0" width="40.2" height="320.0" fill="#59a14f"/>
<text x="798.0" y="388.0" text-anchor="middle">sparse</text>
<rect x="60.0" y="430.0" width="12" height="12" fill="#4e79a7"/><text x="76.0" y="441.0">PT</text>
<rect x="210.0" y="430.0" width="12" height="12" fill="#f28e2b"/><text x="226.0" y="441.0">SA</text>
<rect x="360.0" y="430.0" width="12" height="12" fill="#59a14f"/><text x="376.0" y="441.0">Ultimate</text>
</svg>
